<?xml version="1.0" encoding="UTF-8" standalone="no"?>
<!-- Created with Inkscape (http://www.inkscape.org/) -->

<svg
   width="55.442703mm"
   height="37.951241mm"
   viewBox="0 0 55.442703 37.951241"
   version="1.1"
   id="svg1"
   inkscape:version="1.3.2 (091e20e, 2023-11-25, custom)"
   sodipodi:docname="Logo_iPenny.svg"
   xmlns:inkscape="http://www.inkscape.org/namespaces/inkscape"
   xmlns:sodipodi="http://sodipodi.sourceforge.net/DTD/sodipodi-0.dtd"
   xmlns="http://www.w3.org/2000/svg"
   xmlns:svg="http://www.w3.org/2000/svg">
  <sodipodi:namedview
     id="namedview1"
     pagecolor="#ffffff"
     bordercolor="#000000"
     borderopacity="0.25"
     inkscape:showpageshadow="2"
     inkscape:pageopacity="0.0"
     inkscape:pagecheckerboard="0"
     inkscape:deskcolor="#d1d1d1"
     inkscape:document-units="mm"
     inkscape:zoom="0.4894542"
     inkscape:cx="430.07089"
     inkscape:cy="481.14819"
     inkscape:window-width="1920"
     inkscape:window-height="991"
     inkscape:window-x="-9"
     inkscape:window-y="-9"
     inkscape:window-maximized="1"
     inkscape:current-layer="layer1" />
  <defs
     id="defs1">
    <rect
       x="137.24501"
       y="611.10144"
       width="396.52179"
       height="85.714493"
       id="rect6" />
    <filter
       style="color-interpolation-filters:sRGB"
       inkscape:label="Deep Metal"
       inkscape:menu-tooltip="Deep and dark metal shading"
       inkscape:menu="Non-Realistic 3D Shaders"
       height="1.3449884"
       y="-0.17249418"
       width="1.3479883"
       x="-0.17399413"
       id="filter101">
      <feGaussianBlur
         result="result8"
         stdDeviation="5"
         in="SourceGraphic"
         id="feGaussianBlur95" />
      <feComposite
         result="result19"
         operator="xor"
         in2="result8"
         id="feComposite95" />
      <feComposite
         in2="result8"
         result="result17"
         operator="arithmetic"
         k2="1"
         id="feComposite96"
         k1="0"
         k3="0"
         k4="0" />
      <feComposite
         operator="xor"
         result="result6"
         in2="result17"
         id="feComposite97" />
      <feOffset
         in="result6"
         result="result18"
         id="feOffset97" />
      <feDisplacementMap
         result="result4"
         scale="100"
         yChannelSelector="A"
         xChannelSelector="A"
         in="result18"
         in2="result17"
         id="feDisplacementMap97" />
      <feComposite
         k3="1"
         operator="arithmetic"
         result="result2"
         in2="result4"
         in="result4"
         id="feComposite98"
         k1="0"
         k2="0"
         k4="0" />
      <feComposite
         operator="over"
         in="result2"
         result="fbSourceGraphic"
         in2="result2"
         id="feComposite99" />
      <feComposite
         result="result15"
         operator="xor"
         in2="SourceGraphic"
         in="fbSourceGraphic"
         id="feComposite100" />
      <feComposite
         in="result15"
         operator="in"
         in2="result8"
         result="result16"
         id="feComposite101" />
    </filter>
    <filter
       style="color-interpolation-filters:sRGB"
       inkscape:label="Deep Metal"
       inkscape:menu-tooltip="Deep and dark metal shading"
       inkscape:menu="Non-Realistic 3D Shaders"
       height="1.3449884"
       y="-0.17249418"
       width="1.3479883"
       x="-0.17399413"
       id="filter101-7">
      <feGaussianBlur
         result="result8"
         stdDeviation="5"
         in="SourceGraphic"
         id="feGaussianBlur95-6" />
      <feComposite
         result="result19"
         operator="xor"
         in2="result8"
         id="feComposite95-8" />
      <feComposite
         in2="result8"
         result="result17"
         operator="arithmetic"
         k2="1"
         id="feComposite96-9"
         k1="0"
         k3="0"
         k4="0" />
      <feComposite
         operator="xor"
         result="result6"
         in2="result17"
         id="feComposite97-8" />
      <feOffset
         in="result6"
         result="result18"
         id="feOffset97-6" />
      <feDisplacementMap
         result="result4"
         scale="100"
         yChannelSelector="A"
         xChannelSelector="A"
         in="result18"
         in2="result17"
         id="feDisplacementMap97-9" />
      <feComposite
         k3="1"
         operator="arithmetic"
         result="result2"
         in2="result4"
         in="result4"
         id="feComposite98-6"
         k1="0"
         k2="0"
         k4="0" />
      <feComposite
         operator="over"
         in="result2"
         result="fbSourceGraphic"
         in2="result2"
         id="feComposite99-2" />
      <feComposite
         result="result15"
         operator="xor"
         in2="SourceGraphic"
         in="fbSourceGraphic"
         id="feComposite100-6" />
      <feComposite
         in="result15"
         operator="in"
         in2="result8"
         result="result16"
         id="feComposite101-2" />
    </filter>
  </defs>
  <g
     inkscape:label="Camada 1"
     inkscape:groupmode="layer"
     id="layer1"
     transform="translate(-27.75459,-22.226272)">
    <path
       id="text6"
       style="font-style:normal;font-variant:normal;font-weight:normal;font-stretch:normal;font-size:64px;font-family:'Bauhaus 93';-inkscape-font-specification:'Bauhaus 93, Normal';font-variant-ligatures:normal;font-variant-caps:normal;font-variant-numeric:normal;font-variant-east-asian:normal;white-space:pre;shape-inside:url(#rect6);display:inline;fill:#1b1911;fill-opacity:1;fill-rule:evenodd;stroke-width:0.283931"
       inkscape:label="ipenny"
       d="m 40.074866,43.53252 c -0.680249,0 -1.339846,0.139012 -1.97869,0.417029 -0.638845,0.278017 -1.170905,0.656714 -1.596802,1.135848 -0.378574,0.43181 -0.647992,0.899189 -0.807703,1.401981 -0.153795,0.49688 -0.230476,1.135896 -0.230476,1.916679 v 7.541659 h 3.602364 v -7.914763 c 0,-0.697995 0.280896,-1.046964 0.842842,-1.046964 0.556009,0 0.834058,0.254552 0.834058,0.763261 0,0.556029 -0.363834,0.834057 -1.091406,0.834057 v 3.176551 l 0.550354,0.0088 c 1.384161,0 2.419073,-0.340359 3.105236,-1.02061 0.751234,-0.739378 1.127063,-1.703396 1.127063,-2.89233 0,-1.22445 -0.419911,-2.250748 -1.259871,-3.078882 -0.834021,-0.828137 -1.866626,-1.242316 -3.096969,-1.242316 z m -9.039241,1.105876 c 0.0017,0.0031 0.0033,0.0063 0.0047,0.0093 h 0.03101 c -0.01181,-0.0033 -0.02382,-0.0061 -0.03566,-0.0093 z m 1.504818,0.127124 c 1.2e-4,0.0011 -1.19e-4,0.002 0,0.0031 0.01295,1.25e-4 0.02581,1.31e-4 0.03876,5.17e-4 -0.01292,-0.0011 -0.02584,-0.0026 -0.03876,-0.0036 z m 17.321423,2.138371 c -1.313155,0 -2.422415,0.446794 -3.327446,1.339969 -0.899115,0.8932 -1.348754,1.98708 -1.348754,3.282487 0,1.301349 0.446771,2.392853 1.339969,3.274219 0.893177,0.881369 1.996179,1.3224 3.309359,1.3224 1.076569,0 2.055918,-0.346098 2.937289,-1.038179 l -1.890324,-2.271696 c -0.307594,0.331252 -0.626829,0.497127 -0.958081,0.497127 -0.408125,0 -0.739383,-0.177872 -0.993738,-0.532784 -0.248439,-0.354915 -0.372587,-0.818902 -0.372587,-1.39268 0,-0.550089 0.129889,-0.999758 0.390157,-1.348755 0.260271,-0.354914 0.597761,-0.532267 1.011824,-0.532267 0.621074,0 0.990672,0.328362 1.108977,0.984953 h -1.685686 c -0.106474,0.283929 -0.15968,0.573439 -0.15968,0.869197 0,0.212949 0.03834,0.446894 0.115239,0.701249 h 5.0307 c 0.02365,-0.283929 0.03566,-0.491016 0.03566,-0.62115 0,-1.277689 -0.437669,-2.351455 -1.313098,-3.220992 -0.869538,-0.875452 -1.946174,-1.313098 -3.229777,-1.313098 z m 9.830924,0.0088 c -1.106146,0 -2.040899,0.396459 -2.803963,1.189074 -0.763063,0.786724 -1.144116,1.756948 -1.144116,2.910417 v 4.933032 h 3.318144 V 50.95017 c 0,-0.508709 0.207087,-0.762744 0.62115,-0.762744 0.41998,0 0.629936,0.254035 0.629936,0.762744 v 4.995561 h 3.318661 v -4.666899 c 0,-1.277687 -0.299147,-2.274797 -0.896587,-2.990515 -0.763063,-0.91686 -1.77739,-1.37511 -3.043225,-1.37511 z m 9.82214,0 c -1.106124,0 -2.040407,0.396459 -2.803447,1.189074 -0.763064,0.786724 -1.144633,1.756948 -1.144633,2.910417 v 4.933032 h 3.318144 V 50.95017 c 0,-0.508709 0.207085,-0.762744 0.621151,-0.762744 0.41998,0 0.629936,0.254035 0.629936,0.762744 v 4.995561 h 3.31866 v -4.666899 c 0,-1.277687 -0.298634,-2.274797 -0.896069,-2.990515 -0.763063,-0.91686 -1.777885,-1.37511 -3.043742,-1.37511 z m -39.324215,0.186551 v 8.845972 h 3.318144 v -8.845972 z m 45.083036,0 v 5.562968 c 0,0.946412 0.266031,1.727335 0.798401,2.342493 0.532371,0.609269 1.209703,0.914156 2.031918,0.914156 0.556029,0 1.124081,-0.171614 1.703772,-0.514697 -0.319422,1.21262 -1.0179,1.81901 -2.094446,1.81901 -0.337169,0 -0.730218,-0.09494 -1.179773,-0.28422 v 2.883545 c 0.609267,0.236609 1.221396,0.355017 1.83658,0.355017 1.401883,0 2.596951,-0.53832 3.584794,-1.614889 0.828108,-0.905029 1.242302,-2.093815 1.242302,-3.566707 v -7.896676 h -3.318661 v 4.675684 c 0,0.579689 -0.209954,0.869714 -0.629935,0.869714 -0.437703,0 -0.656808,-0.263159 -0.656808,-0.789616 v -4.755782 z" />
    <ellipse
       style="fill:#44e3e0;fill-opacity:0.988235;fill-rule:evenodd;stroke-width:0.415122;filter:url(#filter101)"
       id="path6"
       cx="63.751595"
       cy="121.16988"
       rx="34.483921"
       ry="34.783783"
       transform="matrix(0.09002263,0,0,0.09002263,26.200109,30.41443)"
       inkscape:label="coin" />
    <ellipse
       style="fill:#44e3e0;fill-opacity:0.988235;fill-rule:evenodd;stroke-width:0.415122;filter:url(#filter101)"
       id="ellipse103"
       cx="63.751595"
       cy="121.16988"
       rx="34.483921"
       ry="34.783783"
       transform="matrix(0.09002263,0,0,0.09002263,26.200109,30.419008)"
       inkscape:label="coin"
       inkscape:export-filename="Assets\coin_green.svg"
       inkscape:export-xdpi="96"
       inkscape:export-ydpi="96" />
    <ellipse
       style="fill:#e344be;fill-opacity:0.988235;fill-rule:evenodd;stroke-width:0.415122;filter:url(#filter101-7)"
       id="ellipse103-5"
       cx="63.751595"
       cy="121.16988"
       rx="34.483921"
       ry="34.783783"
       transform="matrix(0.09002263,0,0,0.09002263,26.200109,15.529839)"
       inkscape:label="coin"
       inkscape:export-filename="Assets\coin_pink.svg"
       inkscape:export-xdpi="96"
       inkscape:export-ydpi="96" />
    <ellipse
       style="fill:#e4c844;fill-opacity:1;fill-rule:evenodd;stroke-width:0.415122;filter:url(#filter101-7)"
       id="ellipse104"
       cx="63.751595"
       cy="121.16988"
       rx="34.483921"
       ry="34.783783"
       transform="matrix(0.09002263,0,0,0.09002263,26.200109,22.650153)"
       inkscape:label="coin"
       inkscape:export-filename="Assets\coin_gold.svg"
       inkscape:export-xdpi="96"
       inkscape:export-ydpi="96" />
  </g>
</svg>
